HIERARCHY
ROOT Hips
{
  OFFSET 5.80788e-005 67.184 3.4734
  CHANNELS 6 Xposition Yposition Zposition Zrotation Xrotation Yrotation
  JOINT Chest
  {
    OFFSET 0 8.7983 -4.7612
    CHANNELS 3 Zrotation Xrotation Yrotation
    JOINT Chest2
    {
      OFFSET 0 8.0291 0.4195
      CHANNELS 3 Zrotation Xrotation Yrotation
      JOINT Chest3
      {
        OFFSET 0 9.9351 -2.2114
        CHANNELS 3 Zrotation Xrotation Yrotation
        JOINT Neck
        {
          OFFSET 0 22.3885 -0.4656
          CHANNELS 3 Zrotation Xrotation Yrotation
          JOINT Head
          {
            OFFSET -0.0001 12.643 3.4389
            CHANNELS 3 Zrotation Xrotation Yrotation
            End Site
            {
              OFFSET 0.0001 17.6655 0.5274
            }
          }
        }
        JOINT LeftCollar
        {
          OFFSET 2.2603 21.606 7.4023
          CHANNELS 3 Zrotation Xrotation Yrotation
          JOINT LeftShoulder
          {
            OFFSET 13.5163 -1.1332 -5.0146
            CHANNELS 3 Zrotation Xrotation Yrotation
            JOINT LeftElbow
            {
              OFFSET -0.0995 -28.05 -0.2431
              CHANNELS 3 Zrotation Xrotation Yrotation
              JOINT LeftWrist
              {
                OFFSET 0.0679 -23.3996 -0.1402
                CHANNELS 3 Zrotation Xrotation Yrotation
                JOINT LeftFinger1
                {
                  OFFSET 0.7932 -9.069 2.5189
                  CHANNELS 3 Zrotation Xrotation Yrotation
                  JOINT LeftFinger11
                  {
                    OFFSET -0.8272 -3.3923 0.5977
                    CHANNELS 3 Zrotation Xrotation Yrotation
                    JOINT LeftFinger12
                    {
                      OFFSET -0.5649 -2.3158 0.4082
                      CHANNELS 3 Zrotation Xrotation Yrotation
                      End Site
                      {
                        OFFSET -0.4919 -1.6479 0.2673
                      }
                    }
                  }
                }
                JOINT LeftFinger2
                {
                  OFFSET 0.9159 -9.2044 0.2193
                  CHANNELS 3 Zrotation Xrotation Yrotation
                  JOINT LeftFinger21
                  {
                    OFFSET 0.0117 -4.1944 -0.0248
                    CHANNELS 3 Zrotation Xrotation Yrotation
                    JOINT LeftFinger22
                    {
                      OFFSET 0.0071 -2.3249 -0.0142
                      CHANNELS 3 Zrotation Xrotation Yrotation
                      End Site
                      {
                        OFFSET -0.1475 -2.0882 0.0028
                      }
                    }
                  }
                }
                JOINT LeftFinger3
                {
                  OFFSET 0.6113 -8.7231 -2.0637
                  CHANNELS 3 Zrotation Xrotation Yrotation
                  JOINT LeftFinger31
                  {
                    OFFSET -0.1927 -3.8059 -0.2383
                    CHANNELS 3 Zrotation Xrotation Yrotation
                    JOINT LeftFinger32
                    {
                      OFFSET -0.1091 -2.1688 -0.1362
                      CHANNELS 3 Zrotation Xrotation Yrotation
                      End Site
                      {
                        OFFSET -0.2358 -1.9176 -0.0906
                      }
                    }
                  }
                }
                JOINT LeftFinger4
                {
                  OFFSET -0.6151 -8.0947 -3.5641
                  CHANNELS 3 Zrotation Xrotation Yrotation
                  JOINT LeftFinger41
                  {
                    OFFSET -0.4882 -2.341 -0.6462
                    CHANNELS 3 Zrotation Xrotation Yrotation
                    JOINT LeftFinger42
                    {
                      OFFSET -0.3575 -1.7167 -0.4742
                      CHANNELS 3 Zrotation Xrotation Yrotation
                      End Site
                      {
                        OFFSET -0.4187 -1.5237 -0.3496
                      }
                    }
                  }
                }
                JOINT LeftFinger0
                {
                  OFFSET -1.42 -1.8761 1.4223
                  CHANNELS 3 Zrotation Xrotation Yrotation
                  JOINT LeftFinger01
                  {
                    OFFSET -1.1471 -3.4929 2.6334
                    CHANNELS 3 Zrotation Xrotation Yrotation
                    JOINT LeftFinger02
                    {
                      OFFSET -0.823 -2.3 1.6571
                      CHANNELS 3 Zrotation Xrotation Yrotation
                      End Site
                      {
                        OFFSET -0.5822 -1.6914 1.1582
                      }
                    }
                  }
                }
              }
            }
          }
        }
        JOINT RightCollar
        {
          OFFSET -2.2603 21.606 7.4023
          CHANNELS 3 Zrotation Xrotation Yrotation
          JOINT RightShoulder
          {
            OFFSET -13.5187 -1.1334 -5.0155
            CHANNELS 3 Zrotation Xrotation Yrotation
            JOINT RightElbow
            {
              OFFSET 0.0994 -28.0499 -0.2431
              CHANNELS 3 Zrotation Xrotation Yrotation
              JOINT RightWrist
              {
                OFFSET -0.0679 -23.3996 -0.1402
                CHANNELS 3 Zrotation Xrotation Yrotation
                JOINT RightFinger1
                {
                  OFFSET -0.7932 -9.0691 2.5189
                  CHANNELS 3 Zrotation Xrotation Yrotation
                  JOINT RightFinger11
                  {
                    OFFSET 0.8272 -3.3923 0.5977
                    CHANNELS 3 Zrotation Xrotation Yrotation
                    JOINT RightFinger12
                    {
                      OFFSET 0.565 -2.3158 0.4082
                      CHANNELS 3 Zrotation Xrotation Yrotation
                      End Site
                      {
                        OFFSET 0.4919 -1.6479 0.2673
                      }
                    }
                  }
                }
                JOINT RightFinger2
                {
                  OFFSET -0.916 -9.2044 0.2193
                  CHANNELS 3 Zrotation Xrotation Yrotation
                  JOINT RightFinger21
                  {
                    OFFSET -0.0117 -4.1944 -0.0248
                    CHANNELS 3 Zrotation Xrotation Yrotation
                    JOINT RightFinger22
                    {
                      OFFSET -0.0071 -2.3249 -0.0142
                      CHANNELS 3 Zrotation Xrotation Yrotation
                      End Site
                      {
                        OFFSET 0.1475 -2.0882 0.0028
                      }
                    }
                  }
                }
                JOINT RightFinger3
                {
                  OFFSET -0.6113 -8.7231 -2.0637
                  CHANNELS 3 Zrotation Xrotation Yrotation
                  JOINT RightFinger31
                  {
                    OFFSET 0.1927 -3.8059 -0.2383
                    CHANNELS 3 Zrotation Xrotation Yrotation
                    JOINT RightFinger32
                    {
                      OFFSET 0.1091 -2.1688 -0.1362
                      CHANNELS 3 Zrotation Xrotation Yrotation
                      End Site
                      {
                        OFFSET 0.2358 -1.9176 -0.0906
                      }
                    }
                  }
                }
                JOINT RightFinger4
                {
                  OFFSET 0.6151 -8.0947 -3.564
                  CHANNELS 3 Zrotation Xrotation Yrotation
                  JOINT RightFinger41
                  {
                    OFFSET 0.4882 -2.341 -0.6462
                    CHANNELS 3 Zrotation Xrotation Yrotation
                    JOINT RightFinger42
                    {
                      OFFSET 0.3574 -1.7166 -0.4742
                      CHANNELS 3 Zrotation Xrotation Yrotation
                      End Site
                      {
                        OFFSET 0.4187 -1.5237 -0.3496
                      }
                    }
                  }
                }
                JOINT RightFinger0
                {
                  OFFSET 1.4199 -1.8761 1.4221
                  CHANNELS 3 Zrotation Xrotation Yrotation
                  JOINT RightFinger01
                  {
                    OFFSET 1.1472 -3.4929 2.6336
                    CHANNELS 3 Zrotation Xrotation Yrotation
                    JOINT RightFinger02
                    {
                      OFFSET 0.8229 -2.3 1.6571
                      CHANNELS 3 Zrotation Xrotation Yrotation
                      End Site
                      {
                        OFFSET 0.5822 -1.6914 1.1582
                      }
                    }
                  }
                }
              }
            }
          }
        }
      }
    }
  }
  JOINT RightHip
  {
    OFFSET -9.412 3.9771 -0.7758
    CHANNELS 3 Zrotation Xrotation Yrotation
    JOINT RightKnee
    {
      OFFSET -0.7531 -40.938 0
      CHANNELS 3 Zrotation Xrotation Yrotation
      JOINT RightAnkle
      {
        OFFSET 0 -40.1986 0
        CHANNELS 3 Zrotation Xrotation Yrotation
        JOINT RightToe
        {
          OFFSET 0 -4.4182 9.239
          CHANNELS 3 Zrotation Xrotation Yrotation
          End Site
          {
            OFFSET 0 0 6.1981
          }
        }
      }
    }
  }
  JOINT LeftHip
  {
    OFFSET 9.4119 3.9773 -0.7758
    CHANNELS 3 Zrotation Xrotation Yrotation
    JOINT LeftKnee
    {
      OFFSET 0.7532 -40.9383 0
      CHANNELS 3 Zrotation Xrotation Yrotation
      JOINT LeftAnkle
      {
        OFFSET 0 -40.1986 0
        CHANNELS 3 Zrotation Xrotation Yrotation
        JOINT LeftToe
        {
          OFFSET 0 -4.4182 9.239
          CHANNELS 3 Zrotation Xrotation Yrotation
          End Site
          {
            OFFSET 0 0 6.1981
          }
        }
      }
    }
  }
}
MOTION
Frames:	4
Frame Time:	0.0333333
5.80788e-005 67.184 3.4734 0 0 -0 0 0 -0 0 0 -0 0 0 -0 0 0 -0 0 0 -0 0 0 -12.5014 88.1196 14.2451 10.6914 -0.00160068 -0.00239207 0.000740045 -8.4365e-005 7.00714e-005 -9.52055e-007 9.93923e-017 -1.98785e-016 -1.59028e-015 9.93923e-017 -5.96354e-016 -1.59028e-015 -9.93923e-017 -5.96354e-016 -1.59028e-015 9.93923e-017 -1.98785e-016 -1.59028e-015 -0.0128176 0.00232552 8.52707e-005 9.93923e-017 5.96354e-016 -0 9.93923e-017 -1.98785e-016 -1.59028e-015 -0.0160551 0.00299681 0.000857156 -2.48481e-016 0 3.18055e-015 9.93923e-017 -1.98785e-016 -1.59028e-015 -0.0125865 0.0031206 0.00282719 0 1.98785e-016 -0 9.93923e-017 -1.98785e-016 -1.59028e-015 9.93923e-017 -5.96354e-016 -1.59028e-015 -9.93923e-017 -5.96354e-016 -1.59028e-015 -0.865644 0.16582 7.03859 -88.0329 10.2057 -10.5567 0.0015593 -0.00248883 -0.000788628 7.87605e-005 4.10553e-005 1.24965e-005 -3.97569e-016 -7.95139e-016 3.18055e-015 -1.98785e-016 -3.97569e-016 3.18055e-015 -1.98785e-016 0 3.18055e-015 -3.97569e-016 -7.95139e-016 3.18055e-015 0.0129473 0.00231697 -8.70038e-005 9.93923e-017 -7.95139e-016 1.59028e-015 -3.97569e-016 -7.95139e-016 3.18055e-015 0.0163314 0.00303369 -0.000872333 3.97569e-016 7.95139e-016 -3.18055e-015 -3.97569e-016 -7.95139e-016 3.18055e-015 0.0145763 0.00367772 -0.00326275 9.93923e-017 -3.97569e-016 -0 -3.97569e-016 -7.95139e-016 3.18055e-015 -1.98785e-016 -3.97569e-016 3.18055e-015 -1.98785e-016 0 3.18055e-015 3.42485 1.36937 -0.0640303 0.000136572 0.69354 0.00145564 -3.42573 -2.06297 -0.0607933 -3.19502e-024 0 -1.48106e-024 -3.42498 1.36123 0.0639712 -6.769e-005 0.712612 -0.0012277 3.42582 -2.07388 0.0612819 2.55305e-023 0 -2.31416e-026 
-9.84255 1.75314 4.11178 -95.625 -7.18232e-008 -7.07396e-009 2.14588 6.05857 -6.10047 4.97114 11.8476 -12.5277 4.97118 11.8476 -12.5278 9.71761 -2.09964 0.336535 0.0855956 15.823 -0.00821414 8.07847 -24.4667 14.8486 10.7266 -43.1757 -0.293495 -21.2244 3.79009 -0.0695129 0.00605775 -0.00261451 0.902984 -7.95139e-015 3.18055e-015 -3.18055e-015 1.59028e-015 3.18055e-015 3.18055e-015 -1.59028e-015 9.54166e-015 -6.36111e-015 -7.95139e-015 3.18055e-015 -3.18055e-015 -0.0128432 0.0023324 9.36378e-005 -3.18055e-015 6.36111e-015 -3.18055e-015 -7.95139e-015 3.18055e-015 -3.18055e-015 -0.0160518 0.00300026 0.000853914 -1.59028e-015 3.18055e-015 -9.54166e-015 -7.95139e-015 3.18055e-015 -3.18055e-015 -0.0125489 0.00311421 0.00281717 -1.59028e-015 -1.59028e-014 -3.18055e-015 -7.95139e-015 3.18055e-015 -3.18055e-015 1.59028e-015 3.18055e-015 3.18055e-015 -1.59028e-015 9.54166e-015 -6.36111e-015 -104.264 -54.3387 -160.717 -98.7923 25.8144 -22.9978 28.8477 5.02011 25.8526 -24.2008 26.0364 65.2225 -7.65541e-006 2.15048e-005 -3.64965e-006 1.206e-005 -6.39025e-005 6.63512e-006 -2.21799e-030 -2.66371e-014 -4.77083e-015 -7.65541e-006 2.15048e-005 -3.64965e-006 0.0129807 0.00225935 -8.85695e-005 -7.61964e-006 1.81892e-005 1.10739e-008 -7.65541e-006 2.15048e-005 -3.64965e-006 0.0163555 0.00298761 -0.000865563 -1.59028e-015 -1.98785e-015 -0 -7.65541e-006 2.15048e-005 -3.64965e-006 0.0145811 0.0036234 -0.00325085 -3.25102e-006 -6.32781e-006 -6.64355e-007 -7.65541e-006 2.15048e-005 -3.64965e-006 1.206e-005 -6.39025e-005 6.63512e-006 -2.21799e-030 -2.66371e-014 -4.77083e-015 -7.3796 -18.4 -0.0936287 63.1828 20.388 -89.8747 10.6335 34.3412 15.7395 -1.38181e-006 2.74731e-006 -1.93242e-005 5.69096 8.29824 10.3933 35.5675 84.9522 -37.4046 2.49102 1.28637 4.23946 1.0775e-005 -7.26764e-006 -2.5649e-006 
-9.75659 5.348 4.94994 -90 5.83653e-007 8.06429e-008 2.03454 5.05729 -6.0702 4.62266 9.86602 -12.387 4.62265 9.86604 -12.3871 9.68558 -1.97298 0.335274 0.390256 14.4835 -0.0362043 4.40957 -21.0211 12.5979 15.9008 -38.5715 1.09536 -19.4445 3.49341 0.727652 0.00580445 -0.00242473 0.819518 1.59028e-015 6.36111e-015 3.18055e-015 3.18055e-015 3.18055e-015 6.36111e-015 1.76556e-031 3.18055e-015 -3.18055e-015 1.59028e-015 6.36111e-015 3.18055e-015 -0.0128034 0.00231422 8.51263e-005 -1.59028e-015 0 -6.36111e-015 1.59028e-015 6.36111e-015 3.18055e-015 -0.016039 0.00298658 0.000864309 -3.18055e-015 -9.54166e-015 3.18055e-015 1.59028e-015 6.36111e-015 3.18055e-015 -0.0126611 0.00313741 0.00284697 -1.59028e-015 -6.36111e-015 -6.36111e-015 1.59028e-015 6.36111e-015 3.18055e-015 3.18055e-015 3.18055e-015 6.36111e-015 1.76556e-031 3.18055e-015 -3.18055e-015 -104.322 -63.7022 -155.417 -98.5179 24.9072 -22.0467 29.0446 5.04096 23.8942 -24.05 22.5938 60.2238 1.16578e-006 6.38254e-006 9.10914e-006 3.55228e-006 -2.90307e-006 -8.32704e-007 -6.36111e-015 1.93815e-015 9.93923e-016 1.16578e-006 6.38254e-006 9.10914e-006 0.0129222 0.00231343 -8.99493e-005 -7.21997e-006 1.25516e-006 7.39087e-006 1.16578e-006 6.38254e-006 9.10914e-006 0.0163186 0.00302478 -0.000877693 -4.86074e-006 1.43036e-005 1.1529e-005 1.16578e-006 6.38254e-006 9.10914e-006 0.014575 0.00369537 -0.00328081 2.45696e-032 1.41634e-015 -9.93923e-016 1.16578e-006 6.38254e-006 9.10914e-006 3.55228e-006 -2.90307e-006 -8.32704e-007 -6.36111e-015 1.93815e-015 9.93923e-016 -6.52262 -16.5832 0.125871 58.9432 24.185 -87.0123 11.0843 31.921 14.5426 -7.57683e-007 1.40522e-006 1.50474e-006 5.23132 9.10921 9.56605 11.9935 78.8968 -13.9822 2.52525 1.29164 3.92198 -1.36164e-005 -6.11422e-009 6.7273e-008 
-9.75204 5.34841 5.79731 -90 -2.66886e-007 3.54698e-007 2.1276 4.408 -6.38856 4.75535 8.54735 -12.992 4.75535 8.54738 -12.992 10.1964 -1.96989 0.352821 0.682355 14.0969 -0.0609463 2.08239 -18.8167 12.3445 17.1006 -37.7168 1.82666 -18.6579 3.36147 0.885108 0.00573783 -0.00241045 0.798824 1.59028e-015 -6.36111e-015 -0 3.18055e-015 -1.27222e-014 3.18055e-015 2.3771e-007 -2.01406e-006 3.01443e-006 1.59028e-015 -6.36111e-015 -0 -0.0128411 0.00233448 8.32558e-005 1.56551e-006 -4.87543e-006 5.89923e-006 1.59028e-015 -6.36111e-015 -0 -0.0160208 0.00299338 0.000858936 -3.53113e-031 6.36111e-015 3.18055e-015 1.59028e-015 -6.36111e-015 -0 -0.0125525 0.0031257 0.00282572 1.59028e-015 -3.18055e-015 -0 1.59028e-015 -6.36111e-015 -0 3.18055e-015 -1.27222e-014 3.18055e-015 2.3771e-007 -2.01406e-006 3.01443e-006 -102.861 -65.6855 -152.076 -98.8738 24.9058 -21.8437 29.697 5.14331 24.8611 -25.218 20.7369 59.1943 -3.62078e-033 1.04362e-015 1.98785e-016 -3.18055e-015 2.60905e-015 -5.46658e-016 -6.37947e-033 3.67752e-015 9.93923e-017 -3.62078e-033 1.04362e-015 1.98785e-016 0.0129655 0.00229867 -7.44737e-005 -3.18055e-015 4.34841e-015 -1.98785e-016 -3.62078e-033 1.04362e-015 1.98785e-016 0.0163204 0.00300796 -0.000871317 -3.18055e-015 4.22417e-016 4.96962e-016 -3.62078e-033 1.04362e-015 1.98785e-016 0.0146157 0.00367971 -0.0032634 -3.18055e-015 3.00662e-015 -9.93923e-016 -3.62078e-033 1.04362e-015 1.98785e-016 -3.18055e-015 2.60905e-015 -5.46658e-016 -6.37947e-033 3.67752e-015 9.93923e-017 -6.37518 -15.9369 0.455925 58.9653 24.1901 -87.0157 11.4586 31.7652 14.9109 0 3.18055e-015 -0 5.20262 10.3729 9.42053 9.66914 77.3215 -11.7447 2.52889 1.34558 3.89086 3.13903e-006 6.81597e-006 4.81664e-007 
